<svg width="24" height="20" viewBox="0 0 24 20" fill="none" xmlns="http://www.w3.org/2000/svg">
<path d="M2 4C2 1.79086 3.79086 0 6 0H18C20.2091 0 22 1.79086 22 4V16C22 18.2091 20.2091 20 18 20H6C3.79086 20 2 18.2091 2 16V4Z" fill="#C8FF70"/>
<path d="M8.92146 1.54809C9.29295 1.19615 9.78521 1 10.2969 1H16.9808C18.7888 1 19.6688 3.20847 18.3563 4.45191L13.0785 9.45191C12.7071 9.80385 12.2148 10 11.7031 10H5.01917C3.21118 10 2.33117 7.79153 3.64368 6.54809L8.92146 1.54809Z" fill="#6FA617"/>
<path d="M10.9215 10.5481C11.2929 10.1962 11.7852 10 12.2969 10H18.9808C20.7888 10 21.6688 12.2085 20.3563 13.4519L15.0785 18.4519C14.7071 18.8038 14.2148 19 13.7031 19H7.01917C5.21118 19 4.33117 16.7915 5.64368 15.5481L10.9215 10.5481Z" fill="#6FA617"/>
</svg>
