<svg width="22" height="17" viewBox="0 0 22 17" fill="none" xmlns="http://www.w3.org/2000/svg">
<path d="M0 2C0 0.89543 0.895431 0 2 0H20C21.1046 0 22 0.895431 22 2V15C22 16.1046 21.1046 17 20 17H2C0.89543 17 0 16.1046 0 15V2Z" fill="#C8FF70"/>
<rect x="2" y="4" width="3" height="11" rx="1" fill="#6FA617"/>
<rect x="7" y="4" width="3" height="11" rx="1" fill="#6FA617"/>
<rect x="12" y="6" width="3" height="9" rx="1" fill="#6FA617"/>
<rect x="17" y="2" width="3" height="13" rx="1" fill="#6FA617"/>
<path d="M5.5 5.5V5.20711L5.79289 5.5H5.5Z" stroke="#6FA617"/>
<path d="M5.5 5.5V5.20711L5.79289 5.5H5.5Z" stroke="#6FA617"/>
<path d="M10.5 5.5V5.20711L10.7929 5.5H10.5Z" stroke="#6FA617"/>
<path d="M10.5 5.5V5.20711L10.7929 5.5H10.5Z" stroke="#6FA617"/>
<path d="M15.5 14.5V14.2071L15.7929 14.5H15.5Z" stroke="#6FA617"/>
<path d="M15.5 14.5V14.2071L15.7929 14.5H15.5Z" stroke="#6FA617"/>
<rect x="4" y="4" width="1" height="1" fill="#6FA617"/>
<rect x="9" y="4" width="1" height="1" fill="#6FA617"/>
<rect x="12" y="6" width="1" height="1" fill="#6FA617"/>
<rect x="14" y="14" width="1" height="1" fill="#6FA617"/>
<rect x="17" y="14" width="1" height="1" fill="#6FA617"/>
</svg>
